<mxfile host="app.diagrams.net" modified="2023-06-02T02:30:53.746Z" agent="Mozilla/5.0 (Windows NT 10.0; Win64; x64) AppleWebKit/537.36 (KHTML, like Gecko) Chrome/113.0.0.0 Safari/537.36" version="21.3.6" etag="RuPspJvxsCKkszGGq5EX" type="github">
  <diagram name="Page-1" id="J3_I2zbPe-zt-2MA0nii">
    <mxGraphModel>
      <root>
        <mxCell id="0" />
        <mxCell id="1" parent="0" />
      </root>
    </mxGraphModel>
  </diagram>
</mxfile>
